<?xml version="1.0" encoding="UTF-8"?>
<svg width="880px" height="210px" viewBox="0 0 880 210" version="1.1" xmlns="http://www.w3.org/2000/svg" xmlns:xlink="http://www.w3.org/1999/xlink">
    <title>Artboard</title>
    <g id="Artboard" stroke="none" stroke-width="1" fill="none" fill-rule="evenodd">
        <g id="Group-5" transform="translate(41.000000, 29.000000)">
            <path d="M141.664574,52.9824186 C134.787896,46.7045461 125.755691,43.2834302 116.438417,43.4282658 C106.871082,43.4282658 97.9589074,46.9043193 91.217262,53.2021691 L73.167857,70.1379412 L72.2976446,71.4414613 L72.0825921,71.6562175 L70.7772736,72.5252308 L51.8576561,90.3350107 C42.7704383,98.9402408 28.3319145,98.9402408 19.2446968,90.3350107 C14.9686532,86.3894902 12.53806,80.8357955 12.53806,75.0223957 C12.53806,69.2139902 14.9686532,63.6602956 19.2446968,59.7147751 L38.8144729,41.0409762 L39.2495791,40.82622 L39.2495791,40.6064695 L67.296424,14.3313007 C68.8067926,12.8429905 70.832287,11.9839657 72.9528045,11.9440111 C75.1233342,11.9440111 77.2988652,12.593274 78.8242375,14.1165445 C80.3396073,15.5099625 81.2048184,17.4827228 81.2048184,19.545381 C81.2048184,21.6030448 80.3396073,23.5758051 78.8242375,24.9742174 L33.3781461,67.5309011 C32.08283,68.604682 31.3376481,70.1978732 31.3376481,71.875968 C31.3376481,73.5540628 32.08283,75.147254 33.3781461,76.2160405 C34.6834647,77.0850539 36.2038357,77.7393111 37.7242068,77.7393111 C39.2495791,77.7393111 41.2050563,77.0850539 42.2903212,76.0012843 L87.7364125,33.4396063 C91.6223609,29.8636662 93.8278992,24.8193932 93.8278992,19.545381 C93.8278992,14.3313007 91.6523682,9.33697098 87.7364125,5.6461613 C83.7204324,1.94036863 78.4191386,-0.0823349103 72.9528045,0.00256869526 C67.4814692,-0.0823349103 62.1851766,1.94036863 58.1641953,5.6461613 L28.1568718,34.0938635 L27.7217656,34.5283702 L10.3275205,51.0296356 C3.74091299,57.1876442 0,65.7978687 0,74.8076395 C0,83.8124161 3.74091299,92.4276349 10.3275205,98.5856434 C17.1691902,104.943425 26.2013946,108.44445 35.5486758,108.354552 C45.1160108,108.354552 54.0331871,104.883493 60.7748324,98.5856434 L79.6944498,80.7808579 L80.559661,79.4773378 L80.9947672,79.4773378 L82.3000858,78.388574 L100.129437,61.4528018 C109.221656,52.8425773 123.66018,52.8425773 132.747398,61.4528018 C137.033444,65.4332826 139.469038,71.0269319 139.469038,76.8702977 C139.469038,82.7136635 137.033444,88.3023185 132.747398,92.2877936 L84.2605642,137.886024 C82.5751529,139.344368 80.3996219,140.123484 78.1690776,140.058558 C75.9385332,140.143461 73.758001,139.364346 72.0825921,137.886024 C70.3971808,136.402708 69.4319452,134.265135 69.4319452,132.022681 C69.4319452,129.780227 70.3971808,127.642654 72.0825921,126.159338 L119.049055,82.0793836 C120.194334,81.0155914 120.844493,79.5172925 120.844493,77.9540673 C120.844493,76.3908421 120.194334,74.8975375 119.049055,73.8287509 C117.84376,72.6051401 116.20336,71.9009396 114.48294,71.875968 C112.867546,71.8959453 111.317168,72.5152422 110.131878,73.6139947 L62.9503634,117.908705 C58.9943979,121.549572 56.7138413,126.658771 56.6438242,132.022681 C56.7138413,137.391586 58.9943979,142.500785 62.9503634,146.136657 C67.0813715,149.832461 72.2976446,152 78.1690776,152 C84.0405105,152 89.0417311,149.832461 92.9576868,146.136657 L141.44452,100.538426 C148.031128,94.3854121 151.772041,85.7701933 151.772041,76.7604225 C151.772041,67.7556459 148.031128,59.1404271 141.44452,52.9824186" id="Path" fill="#3594C7"></path>
            <path d="M188.415984,103.579973 L188.415984,85.1209305 C194.067363,89.4659973 200.588955,92.7223003 209.071025,92.7223003 C214.942458,92.7223003 219.943678,91.1990297 219.943678,86.2047 C219.943678,81.644877 215.81267,79.9118445 208.200812,77.9540673 C192.762045,74.0485014 186.890612,67.0963944 186.890612,54.5056891 C186.890612,39.7374561 198.198371,31.2670729 212.986981,31.2670729 C221.899156,31.2670729 228.205695,33.4396063 233.642022,36.6959093 L233.642022,55.154952 C228.150681,50.2105656 221.033944,47.4287239 213.637139,47.338826 C207.98576,47.338826 205.155069,49.9458661 205.155069,53.4169253 C205.155069,58.1964988 209.506131,59.9345256 217.553095,61.667558 C232.771809,65.7978687 238.208136,72.9597375 238.208136,85.5554371 C238.208136,101.841946 225.159951,108.789059 209.291079,108.789059 C201.994298,108.923906 194.787539,107.125947 188.415984,103.579973 Z M248.645683,130.289649 L248.645683,54.7204453 C257.07274,51.3043238 266.079938,49.5363311 275.172157,49.5113594 C293.441616,49.5113594 306.269747,60.3690323 306.269747,77.7393111 C306.269747,97.7166301 294.526881,108.789059 274.521998,108.789059 C271.826341,108.873963 269.125681,108.654212 266.475035,108.139796 L266.475035,130.289649 L248.645683,130.289649 Z M266.475035,66.8816382 L266.475035,92.5025498 C268.000407,92.9370565 270.826096,93.3715632 273.001627,93.3715632 C281.263644,93.3715632 288.220342,89.0314906 288.220342,78.388574 C288.220342,69.9231851 282.348909,65.363362 274.742052,65.363362 C272.131415,65.363362 268.870619,66.0126249 266.475035,66.8816382 Z M366.499446,84.6864238 L330.840743,84.6864238 L330.840743,84.9061743 C332.361114,90.9842736 339.537866,93.5913137 346.059458,93.5913137 C353.456263,93.5913137 359.327696,91.8532869 364.979075,89.0314906 L364.979075,103.794729 C358.622524,107.370669 351.390759,109.098708 344.10398,108.789059 C324.754258,108.789059 313.446498,97.4968795 313.446498,79.9118445 C313.446498,60.8035389 325.404417,49.5113594 341.493343,49.5113594 C360.412961,49.5113594 366.499446,62.3218152 366.499446,77.0850539 L366.499446,84.6864238 Z M330.840743,74.4830081 L349.975413,74.4830081 C349.975413,69.2689279 347.799882,64.0598419 341.278291,64.0598419 C335.406858,64.0598419 331.926008,68.3999145 330.840743,74.6977643 L330.840743,74.4830081 Z M427.384305,84.6864238 L391.725603,84.6864238 L391.725603,84.9061743 C393.245974,90.9842736 400.422725,93.5913137 406.944317,93.5913137 C414.556175,93.5913137 420.427607,91.8532869 425.863934,89.0314906 L425.863934,103.794729 C420.64266,107.270783 412.81575,108.789059 404.98884,108.789059 C385.85417,108.789059 374.54641,97.4968795 374.54641,79.9118445 C374.54641,60.8035389 386.289276,49.5113594 402.598256,49.5113594 C421.29782,49.5113594 427.384305,62.3218152 427.384305,77.0850539 L427.384305,84.6864238 Z M391.940655,74.4830081 L411.075325,74.4830081 C411.075325,69.2689279 408.904795,64.0598419 402.378202,64.0598419 C396.291717,64.0598419 393.030921,68.3999145 391.940655,74.6977643 L391.940655,74.4830081 Z M493.055333,21.7129201 L493.055333,105.967263 C484.93335,107.905063 476.611319,108.853985 468.264282,108.789059 C448.479454,108.789059 435.646322,98.5856434 435.646322,79.2575873 C435.646322,61.8873085 446.954081,49.5113594 465.003486,49.5113594 C468.699388,49.5113594 472.615344,49.9458661 475.005928,51.0296356 L475.005928,21.7129201 L493.055333,21.7129201 Z M475.005928,93.156807 L475.005928,66.8816382 C472.425298,65.6730104 469.594607,65.0786852 466.743911,65.1436115 C458.696947,65.1436115 453.695727,70.1379412 453.695727,78.6083245 C453.695727,88.1624773 459.352107,93.5913137 468.919442,93.5913137 C470.21976,93.5913137 472.830397,93.5913137 475.005928,92.9370565 L475.005928,93.156807 Z M563.942633,36.0466464 L563.942633,56.4584721 C558.491303,51.1395109 551.119504,48.2427997 543.502645,48.4225955 C531.104619,48.4225955 523.932868,57.5422416 523.932868,70.1379412 C523.932868,83.6026542 532.194885,92.0680431 544.372857,92.0680431 C553.06998,92.0680431 558.941412,89.4659973 565.463004,84.2519171 L565.463004,103.579973 C558.0712,107.920046 551.109501,109.00881 543.282591,109.00881 C519.80186,109.00881 504.798199,92.9370565 504.798199,70.3576917 C504.798199,47.338826 520.016913,31.4868234 543.502645,31.4868234 C551.109501,31.4868234 557.851146,32.7903434 563.942633,36.2614026 L563.942633,36.0466464 Z M627.653182,50.8148795 L627.653182,105.532756 C621.126589,107.70529 610.253936,108.789059 602.862132,108.789059 C586.553151,108.789059 575.900551,104.01448 575.900551,86.2047 L575.900551,50.8148795 L593.729903,50.8148795 L593.729903,84.6864238 C593.729903,90.7695174 595.250274,94.2405766 602.862132,94.2405766 C604.387504,94.2405766 607.213193,94.0258204 609.603777,93.3715632 L609.603777,50.8148795 L627.653182,50.8148795 Z M657.875558,67.5309011 L657.875558,107.485539 L639.831154,107.485539 L639.831154,54.9401958 C651.003881,49.6012573 663.711982,48.3676579 675.704909,51.4641423 L675.704909,68.8344212 C669.978512,66.5270408 663.66197,66.0725568 657.660505,67.5309011 L657.875558,67.5309011 Z M724.416798,107.485539 L703.321649,107.485539 L681.576342,50.8148795 L701.146118,50.8148795 L714.194303,89.900504 L727.242487,50.8148795 L746.157103,50.8148795 L724.416798,107.485539 Z M799,84.6864238 L763.336296,84.6864238 L763.336296,84.9061743 C764.861668,90.9842736 772.033419,93.5913137 778.560012,93.5913137 C786.166868,93.5913137 792.038301,91.8532869 797.474628,89.0314906 L797.474628,103.794729 C792.258355,107.270783 784.431444,108.789059 776.599533,108.789059 C757.464863,108.789059 746.157103,97.4968795 746.157103,80.1266007 C746.157103,60.8035389 757.899969,49.5113594 774.20895,49.5113594 C792.908513,49.5113594 799,62.3218152 799,77.0850539 L799,84.6864238 Z M763.55635,74.6977643 L782.69102,74.6977643 C782.69102,69.2689279 780.515489,64.0598419 773.773843,64.0598419 C767.90241,64.0598419 764.426562,68.3999145 763.55635,74.6977643 Z" id="Shape" fill="#2B2B2B"></path>
        </g>
    </g>
</svg>